<?xml version="1.0" encoding="utf-8"?>
<!-- Generator: Adobe Illustrator 22.1.0, SVG Export Plug-In . SVG Version: 6.00 Build 0)  -->
<svg version="1.1" id="Layer_1" xmlns="http://www.w3.org/2000/svg" xmlns:xlink="http://www.w3.org/1999/xlink" x="0px" y="0px"
	 viewBox="0 0 5000 5000" style="enable-background:new 0 0 5000 5000;" xml:space="preserve">
<style type="text/css">
	.st0{fill-rule:evenodd;clip-rule:evenodd;}
	.st1{fill-rule:evenodd;clip-rule:evenodd;fill:#00F7EF;}
	.st2{fill-rule:evenodd;clip-rule:evenodd;fill:#FFFFFF;}
	.st3{fill-rule:evenodd;clip-rule:evenodd;fill:#FF004F;}
</style>
<rect class="st0" width="5000" height="5000"/>
<g>
	<path id="Blue" class="st1" d="M1502.7,3660.1c-625.5-542.8-221-1751.4,740.7-1599.3v111.9
		C1431.3,2134.9,1073.8,3103.7,1502.7,3660.1z M3256.9,1563.5c98.8,79,235.1,137.2,423,148.3v109.7
		C3472,1783.1,3340.2,1679.8,3256.9,1563.5z M2996.1,986.2c-0.1,40.5,5.1,83.9,11.7,123.6h-383.4v1908.8c0,88-9,166.4-27.1,235.1
		c-156.1,344.1-598.2,299.2-720.3,63c181.9,113.9,480.9,83.6,603.6-186.6c17.9-68.6,26.9-147.1,26.9-235.1V986.2H2996.1z"/>
	<path id="Black" class="st2" d="M3113,1109.9v2.4c0.1,44.2,13.1,683.3,683.7,723.1c0,594.5,0.3,0,0.3,493.8
		c-50.4,3-441.4-25.3-684.8-242.3l-0.8,961.3c6,435.3-236.3,862.1-689.9,948.2c-127.1,24.1-241.5,26.8-433.6-15.2
		c-1106.7-331-738.9-1972.4,372.3-1796.8c0,529.9,0.3-0.1,0.3,529.9c-459-67.5-612.6,314.3-490.6,587.8
		c111,248.9,568.1,302.9,727.5-48.3c18-68.7,27.1-147.1,27.1-235.1V1109.9H3113z"/>
	<path id="Red" class="st3" d="M2243.5,2172.7c37.9,1.7,76.9,5.4,116.7,11.7c0,529.9,0.3-0.1,0.3,529.9
		c-459-67.5-612.6,314.3-490.6,587.8c2.2,5,4.7,9.9,7.2,14.7c-54.6-34.1-98.5-81.1-124-138.4c-121.8-273.4,31.6-655.3,490.6-587.8
		C2243.6,2105,2243.5,2509.1,2243.5,2172.7z M3679.9,1821.5c36.5,6.7,75.5,11.5,116.9,14c0,594.5,0.3,0,0.3,493.8
		c-50.4,3-441.4-25.3-684.8-242.3l-0.8,961.3c6,435.3-236.3,862.1-689.9,948.2c-127.1,24.1-241.5,26.8-433.6-15.2
		c-216.3-64.7-376-179.6-485.2-321.1c97.3,84.5,219.4,153,368.5,197.6c191.9,41.8,306.4,39.1,433.5,15
		c453.6-86,695.9-512.9,690.1-948l0.6-961.4c243.4,217.1,634.4,245.5,685,242.3C3680.3,1747,3679.9,2227,3679.9,1821.5z
		 M3113,1109.9v2.4c0,26,4.7,256.7,143.9,451.2c-167.9-134.3-227.7-328.3-249.1-453.6H3113z"/>
</g>
</svg>
